<mxfile host="www.draw.io" modified="2019-12-26T12:43:37.469Z" agent="Mozilla/5.0 (Macintosh; Intel Mac OS X 10_12_5) AppleWebKit/537.36 (KHTML, like Gecko) Chrome/76.0.3809.132 Safari/537.36" etag="utFkkrJCEF63p10nxwuN" version="12.4.3" type="github" pages="1">
  <diagram id="3e6SWxXRQ_hCuez3VoNy" name="Page-1">
    <mxGraphModel dx="1106" dy="682" grid="1" gridSize="10" guides="1" tooltips="1" connect="1" arrows="1" fold="1" page="1" pageScale="1" pageWidth="827" pageHeight="1169" math="0" shadow="0">
      <root>
        <mxCell id="0"/>
        <mxCell id="1" parent="0"/>
        <mxCell id="AKsK6fo6_11dipU4AKg7-27" value="" style="rounded=1;whiteSpace=wrap;html=1;" parent="1" vertex="1">
          <mxGeometry x="280" y="450" width="410" height="240" as="geometry"/>
        </mxCell>
        <mxCell id="AKsK6fo6_11dipU4AKg7-24" value="" style="rounded=1;whiteSpace=wrap;html=1;" parent="1" vertex="1">
          <mxGeometry x="130" y="20" width="550" height="320" as="geometry"/>
        </mxCell>
        <mxCell id="AKsK6fo6_11dipU4AKg7-2" value="CLIENT" style="rounded=1;whiteSpace=wrap;html=1;" parent="1" vertex="1">
          <mxGeometry x="30" y="390" width="120" height="60" as="geometry"/>
        </mxCell>
        <mxCell id="AKsK6fo6_11dipU4AKg7-6" value="CLIENT" style="rounded=1;whiteSpace=wrap;html=1;" parent="1" vertex="1">
          <mxGeometry x="320" y="260" width="100" height="60" as="geometry"/>
        </mxCell>
        <mxCell id="AKsK6fo6_11dipU4AKg7-16" style="edgeStyle=orthogonalEdgeStyle;rounded=0;orthogonalLoop=1;jettySize=auto;html=1;" parent="1" source="AKsK6fo6_11dipU4AKg7-3" target="AKsK6fo6_11dipU4AKg7-11" edge="1">
          <mxGeometry relative="1" as="geometry"/>
        </mxCell>
        <mxCell id="AKsK6fo6_11dipU4AKg7-3" value="LogServer" style="rounded=0;whiteSpace=wrap;html=1;" parent="1" vertex="1">
          <mxGeometry x="320" y="260" width="120" height="60" as="geometry"/>
        </mxCell>
        <mxCell id="AKsK6fo6_11dipU4AKg7-4" value="WebServer" style="rounded=1;whiteSpace=wrap;html=1;" parent="1" vertex="1">
          <mxGeometry x="320" y="140" width="120" height="60" as="geometry"/>
        </mxCell>
        <mxCell id="AKsK6fo6_11dipU4AKg7-5" value="MYSQL" style="rounded=1;whiteSpace=wrap;html=1;" parent="1" vertex="1">
          <mxGeometry x="520" y="40" width="120" height="60" as="geometry"/>
        </mxCell>
        <mxCell id="AKsK6fo6_11dipU4AKg7-11" value="Kafka Online" style="rounded=1;whiteSpace=wrap;html=1;" parent="1" vertex="1">
          <mxGeometry x="520" y="260" width="120" height="60" as="geometry"/>
        </mxCell>
        <mxCell id="AKsK6fo6_11dipU4AKg7-12" value="Mirror" style="rounded=1;whiteSpace=wrap;html=1;" parent="1" vertex="1">
          <mxGeometry x="520" y="370" width="120" height="60" as="geometry"/>
        </mxCell>
        <mxCell id="AKsK6fo6_11dipU4AKg7-13" value="Kafka Offline" style="rounded=1;whiteSpace=wrap;html=1;" parent="1" vertex="1">
          <mxGeometry x="520" y="480" width="120" height="60" as="geometry"/>
        </mxCell>
        <mxCell id="AKsK6fo6_11dipU4AKg7-14" value="DataSink" style="rounded=1;whiteSpace=wrap;html=1;" parent="1" vertex="1">
          <mxGeometry x="520" y="580" width="120" height="60" as="geometry"/>
        </mxCell>
        <mxCell id="AKsK6fo6_11dipU4AKg7-15" value="ODS表" style="rounded=1;whiteSpace=wrap;html=1;" parent="1" vertex="1">
          <mxGeometry x="340" y="580" width="120" height="60" as="geometry"/>
        </mxCell>
        <mxCell id="AKsK6fo6_11dipU4AKg7-17" value="Reco Log&lt;br&gt;AD Log&lt;br&gt;Client Log" style="text;html=1;align=center;verticalAlign=middle;resizable=0;points=[];;labelBackgroundColor=#ffffff;" parent="1" vertex="1" connectable="0">
          <mxGeometry x="310" y="250" as="geometry">
            <mxPoint x="180" y="78" as="offset"/>
          </mxGeometry>
        </mxCell>
        <mxCell id="AKsK6fo6_11dipU4AKg7-18" value="" style="endArrow=classic;html=1;entryX=0;entryY=0;entryDx=0;entryDy=0;" parent="1" target="AKsK6fo6_11dipU4AKg7-11" edge="1">
          <mxGeometry width="50" height="50" relative="1" as="geometry">
            <mxPoint x="380" y="200" as="sourcePoint"/>
            <mxPoint x="430" y="150" as="targetPoint"/>
          </mxGeometry>
        </mxCell>
        <mxCell id="BYa4Cgi5Y5y1z8ZKjr-z-2" value="WebServerLog" style="text;html=1;align=center;verticalAlign=middle;resizable=0;points=[];;labelBackgroundColor=#ffffff;" vertex="1" connectable="0" parent="AKsK6fo6_11dipU4AKg7-18">
          <mxGeometry x="-0.0131" y="-2" relative="1" as="geometry">
            <mxPoint as="offset"/>
          </mxGeometry>
        </mxCell>
        <mxCell id="AKsK6fo6_11dipU4AKg7-19" value="" style="endArrow=classic;html=1;entryX=0.5;entryY=0;entryDx=0;entryDy=0;" parent="1" target="AKsK6fo6_11dipU4AKg7-11" edge="1">
          <mxGeometry width="50" height="50" relative="1" as="geometry">
            <mxPoint x="580" y="200" as="sourcePoint"/>
            <mxPoint x="630" y="150" as="targetPoint"/>
          </mxGeometry>
        </mxCell>
        <mxCell id="AKsK6fo6_11dipU4AKg7-26" value="BinLog" style="text;html=1;align=center;verticalAlign=middle;resizable=0;points=[];;labelBackgroundColor=#ffffff;" parent="AKsK6fo6_11dipU4AKg7-19" vertex="1" connectable="0">
          <mxGeometry x="0.0486" y="1" relative="1" as="geometry">
            <mxPoint as="offset"/>
          </mxGeometry>
        </mxCell>
        <mxCell id="AKsK6fo6_11dipU4AKg7-25" value="" style="endArrow=classic;html=1;exitX=0.5;exitY=0;exitDx=0;exitDy=0;entryX=0;entryY=0.5;entryDx=0;entryDy=0;" parent="1" source="AKsK6fo6_11dipU4AKg7-4" target="AKsK6fo6_11dipU4AKg7-5" edge="1">
          <mxGeometry width="50" height="50" relative="1" as="geometry">
            <mxPoint x="80" y="180" as="sourcePoint"/>
            <mxPoint x="130" y="130" as="targetPoint"/>
          </mxGeometry>
        </mxCell>
        <mxCell id="AKsK6fo6_11dipU4AKg7-28" value="" style="endArrow=classic;html=1;entryX=0.5;entryY=0;entryDx=0;entryDy=0;" parent="1" target="AKsK6fo6_11dipU4AKg7-12" edge="1">
          <mxGeometry width="50" height="50" relative="1" as="geometry">
            <mxPoint x="580" y="320" as="sourcePoint"/>
            <mxPoint x="630" y="270" as="targetPoint"/>
          </mxGeometry>
        </mxCell>
        <mxCell id="AKsK6fo6_11dipU4AKg7-29" value="" style="endArrow=classic;html=1;exitX=0.5;exitY=1;exitDx=0;exitDy=0;entryX=0.5;entryY=0;entryDx=0;entryDy=0;" parent="1" source="AKsK6fo6_11dipU4AKg7-12" target="AKsK6fo6_11dipU4AKg7-13" edge="1">
          <mxGeometry width="50" height="50" relative="1" as="geometry">
            <mxPoint x="90" y="840" as="sourcePoint"/>
            <mxPoint x="140" y="790" as="targetPoint"/>
          </mxGeometry>
        </mxCell>
        <mxCell id="AKsK6fo6_11dipU4AKg7-30" value="" style="endArrow=classic;html=1;exitX=0.5;exitY=1;exitDx=0;exitDy=0;" parent="1" source="AKsK6fo6_11dipU4AKg7-13" target="AKsK6fo6_11dipU4AKg7-14" edge="1">
          <mxGeometry width="50" height="50" relative="1" as="geometry">
            <mxPoint x="320" y="850" as="sourcePoint"/>
            <mxPoint x="370" y="800" as="targetPoint"/>
          </mxGeometry>
        </mxCell>
        <mxCell id="AKsK6fo6_11dipU4AKg7-31" value="" style="endArrow=classic;html=1;" parent="1" edge="1">
          <mxGeometry width="50" height="50" relative="1" as="geometry">
            <mxPoint x="70" y="1000" as="sourcePoint"/>
            <mxPoint x="120" y="950" as="targetPoint"/>
          </mxGeometry>
        </mxCell>
        <mxCell id="AKsK6fo6_11dipU4AKg7-32" value="" style="endArrow=classic;html=1;exitX=0.585;exitY=0.667;exitDx=0;exitDy=0;exitPerimeter=0;" parent="1" source="AKsK6fo6_11dipU4AKg7-27" target="AKsK6fo6_11dipU4AKg7-15" edge="1">
          <mxGeometry width="50" height="50" relative="1" as="geometry">
            <mxPoint x="80" y="620" as="sourcePoint"/>
            <mxPoint x="130" y="570" as="targetPoint"/>
          </mxGeometry>
        </mxCell>
        <mxCell id="BYa4Cgi5Y5y1z8ZKjr-z-1" value="BinLogDump" style="rounded=1;whiteSpace=wrap;html=1;" vertex="1" parent="1">
          <mxGeometry x="520" y="150" width="120" height="60" as="geometry"/>
        </mxCell>
        <mxCell id="BYa4Cgi5Y5y1z8ZKjr-z-3" value="" style="endArrow=classic;html=1;exitX=0.5;exitY=1;exitDx=0;exitDy=0;" edge="1" parent="1" source="AKsK6fo6_11dipU4AKg7-5" target="BYa4Cgi5Y5y1z8ZKjr-z-1">
          <mxGeometry width="50" height="50" relative="1" as="geometry">
            <mxPoint x="40" y="170" as="sourcePoint"/>
            <mxPoint x="90" y="120" as="targetPoint"/>
          </mxGeometry>
        </mxCell>
        <mxCell id="BYa4Cgi5Y5y1z8ZKjr-z-4" value="业务直接消费kafka" style="rounded=1;whiteSpace=wrap;html=1;" vertex="1" parent="1">
          <mxGeometry x="350" y="480" width="110" height="60" as="geometry"/>
        </mxCell>
        <mxCell id="BYa4Cgi5Y5y1z8ZKjr-z-5" value="" style="endArrow=classic;html=1;exitX=0;exitY=0.5;exitDx=0;exitDy=0;entryX=1;entryY=0.5;entryDx=0;entryDy=0;" edge="1" parent="1" source="AKsK6fo6_11dipU4AKg7-13" target="BYa4Cgi5Y5y1z8ZKjr-z-4">
          <mxGeometry width="50" height="50" relative="1" as="geometry">
            <mxPoint x="80" y="470" as="sourcePoint"/>
            <mxPoint x="130" y="420" as="targetPoint"/>
          </mxGeometry>
        </mxCell>
        <mxCell id="BYa4Cgi5Y5y1z8ZKjr-z-6" value="在线机房" style="ellipse;shape=cloud;whiteSpace=wrap;html=1;" vertex="1" parent="1">
          <mxGeometry x="160" y="30" width="120" height="80" as="geometry"/>
        </mxCell>
        <mxCell id="BYa4Cgi5Y5y1z8ZKjr-z-7" value="离线机房" style="ellipse;shape=cloud;whiteSpace=wrap;html=1;" vertex="1" parent="1">
          <mxGeometry x="260" y="430" width="120" height="80" as="geometry"/>
        </mxCell>
        <mxCell id="BYa4Cgi5Y5y1z8ZKjr-z-9" value="nginx" style="rounded=0;whiteSpace=wrap;html=1;" vertex="1" parent="1">
          <mxGeometry x="160" y="200" width="120" height="60" as="geometry"/>
        </mxCell>
      </root>
    </mxGraphModel>
  </diagram>
</mxfile>
